HIERARCHY
ROOT Hips
{
	OFFSET 0.000000 0.000000 0.000000
	CHANNELS 6 Xposition Yposition Zposition Zrotation Yrotation Xrotation 
	JOINT LHipJoint
	{
		OFFSET 0.000000 0.000000 0.000000
		CHANNELS 3 Zrotation Yrotation Xrotation
		JOINT LeftUpLeg
		{
			OFFSET 1.363060 -1.794630 0.839290
			CHANNELS 3 Zrotation Yrotation Xrotation
			JOINT LeftLeg
			{
				OFFSET 2.448110 -6.726130 0.000000
				CHANNELS 3 Zrotation Yrotation Xrotation
				JOINT LeftFoot
				{
					OFFSET 2.562200 -7.039590 0.000000
					CHANNELS 3 Zrotation Yrotation Xrotation
					JOINT LeftToeBase
					{
						OFFSET 0.157640 -0.433110 2.322550
						CHANNELS 3 Zrotation Yrotation Xrotation
						End Site
						{
							OFFSET 0.000000 0.000000 0.000000
						}
					}
				}
			}
		}
	}
	JOINT RHipJoint
	{
		OFFSET 0.000000 0.000000 0.000000
		CHANNELS 3 Zrotation Yrotation Xrotation
		JOINT RightUpLeg
		{
			OFFSET -1.305520 -1.794630 0.839290
			CHANNELS 3 Zrotation Yrotation Xrotation
			JOINT RightLeg
			{
				OFFSET -2.542530 -6.985550 0.000000
				CHANNELS 3 Zrotation Yrotation Xrotation
				JOINT RightFoot
				{
					OFFSET -2.568260 -7.056230 0.000000
					CHANNELS 3 Zrotation Yrotation Xrotation
					JOINT RightToeBase
					{
						OFFSET -0.164730 -0.452590 2.363150
						CHANNELS 3 Zrotation Yrotation Xrotation
						End Site
						{
							OFFSET 0.000000 0.000000 0.000000
						}
					}
				}
			}
		}
	}
	JOINT LowerBack
	{
		OFFSET 0.000000 0.000000 0.000000
		CHANNELS 3 Zrotation Yrotation Xrotation
		JOINT Spine
		{
			OFFSET 0.028270 2.035590 -0.193380
			CHANNELS 3 Zrotation Yrotation Xrotation
			JOINT Spine1
			{
				OFFSET 0.056720 2.048850 -0.042750
				CHANNELS 3 Zrotation Yrotation Xrotation
				JOINT Neck
				{
					OFFSET 0.000000 0.000000 0.000000
					CHANNELS 3 Zrotation Yrotation Xrotation
					JOINT Neck1
					{
						OFFSET -0.054170 1.746240 0.172020
						CHANNELS 3 Zrotation Yrotation Xrotation
						JOINT Head
						{
							OFFSET 0.104070 1.761360 -0.123970
							CHANNELS 3 Zrotation Yrotation Xrotation
							End Site
							{
								OFFSET 0.000000 0.000000 0.000000
							}
						}
					}
				}
				JOINT LeftShoulder
				{
					OFFSET 0.000000 0.000000 0.000000
					CHANNELS 3 Zrotation Yrotation Xrotation
					JOINT LeftArm
					{
						OFFSET 3.362410 1.200890 -0.311210
						CHANNELS 3 Zrotation Yrotation Xrotation
						JOINT LeftForeArm
						{
							OFFSET 4.983000 -0.000000 -0.000000
							CHANNELS 3 Zrotation Yrotation Xrotation
							JOINT LeftHand
							{
								OFFSET 3.483560 -0.000000 -0.000000
								CHANNELS 3 Zrotation Yrotation Xrotation
								JOINT LeftFingerBase
								{
									OFFSET 0.000000 0.000000 0.000000
									CHANNELS 3 Zrotation Yrotation Xrotation
									JOINT LeftHandIndex1
									{
										OFFSET 0.715260 -0.000000 -0.000000
										CHANNELS 3 Zrotation Yrotation Xrotation
										End Site
										{
											OFFSET 0.000000 0.000000 0.000000
										}
									}
								}
								JOINT LThumb
								{
									OFFSET 0.000000 0.000000 0.000000
									CHANNELS 3 Zrotation Yrotation Xrotation
									End Site
									{
										OFFSET 0.000000 0.000000 0.000000
									}
								}
							}
						}
					}
				}
				JOINT RightShoulder
				{
					OFFSET 0.000000 0.000000 0.000000
					CHANNELS 3 Zrotation Yrotation Xrotation
					JOINT RightArm
					{
						OFFSET -3.136600 1.374050 -0.404650
						CHANNELS 3 Zrotation Yrotation Xrotation
						JOINT RightForeArm
						{
							OFFSET -5.241900 -0.000000 -0.000000
							CHANNELS 3 Zrotation Yrotation Xrotation
							JOINT RightHand
							{
								OFFSET -3.444170 -0.000000 -0.000000
								CHANNELS 3 Zrotation Yrotation Xrotation
								JOINT RightFingerBase
								{
									OFFSET 0.000000 0.000000 0.000000
									CHANNELS 3 Zrotation Yrotation Xrotation
									JOINT RightHandIndex1
									{
										OFFSET -0.622530 -0.000000 -0.000000
										CHANNELS 3 Zrotation Yrotation Xrotation
										End Site
										{
											OFFSET 0.000000 0.000000 0.000000
										}
									}
								}
								JOINT RThumb
								{
									OFFSET 0.000000 0.000000 0.000000
									CHANNELS 3 Zrotation Yrotation Xrotation
									End Site
									{
										OFFSET 0.000000 0.000000 0.000000
									}
								}
							}
						}
					}
				}
			}
		}
	}
}
MOTION
Frames: 5
Frame Time: 0.008333
0.767673 18.541379 8.703339 -5.943261 -0.851951 11.106796 3.422576 4.041288 -1.032629 -13.336771 -33.643312 8.554331 -3.229531 -0.538277 0.429590 -12.089208 38.088077 -16.603864 0.000100 -0.076800 -0.211000 -4.390550 -3.838357 -1.292107 24.768580 23.139957 -3.464202 2.700303 -3.658599 11.580173 5.001830 -16.887891 -0.519522 -0.038400 1.264300 -3.476300 16.116852 -1.861507 15.688544 -15.576619 -2.850519 -25.657046 -5.240054 -1.376518 -16.945219 -15.724979 -11.506092 -13.076421 12.188090 -19.468061 53.182432 1.434100 -7.664200 16.494200 -2.281210 -8.254346 3.579065 -80.486476 -16.103391 97.022070 67.207355 -52.254794 -48.297575 0.311975 0.480162 -44.929541 -19.162325 -2.979146 1.110600 -7.125000 0.000000 0.000000 -33.193600 25.680500 18.729900 14.652185 6.506645 3.822856 88.961724 7.806402 106.150175 -130.577264 51.473480 -97.452091 -1.344826 0.439581 -8.087846 -2.729994 -44.840795 1.043000 7.125000 0.000000 0.000000 53.252200 -68.439200 -33.294600 
0.760425 18.542535 8.706490 -6.003906 -0.331731 11.351318 3.456311 3.993767 -1.075399 -12.880109 -33.270207 7.765337 -3.190424 -0.472079 0.523639 -11.948659 37.663430 -15.450283 0.005600 -0.483600 -1.328900 -4.351637 -3.809253 -1.307330 24.752413 22.937167 -3.762137 2.703118 -3.688826 11.617665 5.050381 -17.030760 -0.696069 -0.038300 1.262800 -3.472200 15.818805 -1.831932 15.390893 -15.107634 -2.893759 -25.993721 -5.203789 -1.395556 -16.462374 -16.865523 -12.024794 -12.215961 12.277104 -20.301274 53.085874 1.423400 -8.200000 16.509400 -2.194119 -8.359948 3.684431 -81.308472 -19.144516 99.132295 70.993098 -53.219149 -52.244629 0.196148 0.600943 -43.512538 -19.730837 -3.183603 1.291000 -7.125000 0.000000 0.000000 -33.411800 25.271900 19.315300 14.669345 6.537855 3.667161 89.141306 6.266508 105.042154 -131.552697 51.065283 -98.075359 -1.334037 0.430956 -5.094951 -3.269717 -45.324415 1.422900 7.125000 0.000000 0.000000 53.683000 -68.854500 -34.073700 
0.758429 18.538963 8.694620 -6.256375 0.215737 11.338850 3.477945 3.975469 -1.061963 -12.268033 -32.909814 7.139479 -3.148113 -0.403666 0.633537 -11.788449 37.187179 -14.360027 0.017400 -0.851100 -2.339200 -4.336806 -3.800774 -1.279726 25.049114 22.719520 -3.861502 2.699820 -3.720016 11.702347 5.105818 -17.185984 -0.970021 -0.034500 1.199300 -3.297200 15.920722 -1.920379 15.379044 -14.886341 -2.938468 -25.862077 -5.224696 -1.441403 -16.336330 -17.752131 -12.504472 -11.800091 12.344799 -21.059667 53.089310 1.376900 -8.672600 16.568900 -2.111638 -8.472890 3.766836 -82.119373 -22.344782 101.323187 75.175165 -54.278040 -56.558710 0.022992 0.756300 -42.290616 -20.718177 -3.968057 1.761500 -7.125000 0.000000 0.000000 -33.665500 24.243000 20.564000 14.741197 6.557391 3.684940 90.505893 7.907970 106.057010 -135.215281 49.213945 -100.508332 -1.226768 0.217787 -3.369131 -5.861528 -50.490543 3.608100 7.125000 0.000000 0.000000 64.033800 -72.264900 -46.375100 
0.761790 18.534236 8.675291 -6.618511 0.844701 11.232132 3.510226 3.965172 -1.044426 -11.622663 -32.666715 6.612599 -3.104403 -0.325074 0.770030 -11.636150 36.733237 -13.334114 0.036000 -1.225100 -3.368500 -4.318640 -3.795841 -1.239429 25.461845 22.392503 -3.928101 2.693858 -3.750130 11.791029 5.153587 -17.332360 -1.186349 -0.031300 1.141600 -3.138400 16.218607 -2.100302 15.536590 -14.564764 -3.001220 -25.672486 -5.397938 -1.574245 -16.461449 -18.573685 -12.895681 -11.441407 12.486840 -21.716816 52.953367 1.367000 -9.077400 16.572200 -2.024026 -8.472518 3.953798 -82.908999 -25.409787 103.667644 80.110552 -55.445065 -61.514046 -0.128010 0.730197 -42.664348 -19.456606 -4.170291 1.738600 -7.125000 0.000000 0.000000 -32.787000 24.137100 19.884200 14.750867 6.438795 3.393379 91.947352 5.627039 104.369922 -136.415234 48.675892 -101.296939 -1.218394 0.183149 -0.434090 -5.582336 -51.119646 3.410400 7.125000 0.000000 0.000000 65.749800 -72.368100 -48.001700 
0.773976 18.522681 8.648400 -8.000943 1.856364 10.858160 3.736303 3.944045 -1.039446 -10.052777 -32.254412 6.155142 -3.035893 -0.278036 0.867227 -11.473138 36.145722 -11.943056 0.072600 -1.738600 -4.783900 -4.174234 -3.852734 -1.102414 26.983902 21.731788 -3.830671 2.682603 -3.780594 11.887285 5.098075 -17.270460 -1.469050 -0.027900 1.078700 -2.965500 17.022395 -2.255268 15.933947 -12.530488 -2.533998 -25.247016 -6.580253 -1.839498 -16.781651 -19.752251 -13.255993 -11.482840 12.980531 -22.381681 52.941387 1.444300 -9.417700 16.571500 -2.224866 -8.316146 4.107296 -83.776295 -28.401065 105.803958 85.293412 -56.512069 -66.375164 -0.178878 0.738897 -43.411618 -19.074179 -3.594274 1.510900 -7.125000 0.000000 0.000000 -32.698500 24.656400 19.310200 14.730314 6.329823 3.265337 92.117067 5.393874 103.949361 -137.322552 48.268957 -101.905629 -1.227702 0.140435 1.406720 -6.765520 -51.322305 4.335500 7.125000 0.000000 0.000000 65.509100 -72.848200 -48.335100 
